<svg id="SvgjsSvg1130" width="288" height="288" xmlns="http://www.w3.org/2000/svg" version="1.1" xmlns:xlink="http://www.w3.org/1999/xlink" xmlns:svgjs="http://svgjs.com/svgjs"><defs id="SvgjsDefs1131"></defs><g id="SvgjsG1132"><svg xmlns="http://www.w3.org/2000/svg" xmlns:xlink="http://www.w3.org/1999/xlink" width="288" height="288" viewBox="0 0 1677.531 1095.525"><defs><linearGradient id="c" x1=".5" x2=".5" y2="1" gradientUnits="objectBoundingBox"><stop offset="0" stop-color="#ffffff" class="stopColorrgba2552552550 svgShape"></stop><stop offset=".5" stop-color="#ffffff" class="stopColorrgba25525525504 svgShape"></stop><stop offset="1" stop-color="#299fef" class="stopColoref4129 svgShape"></stop></linearGradient><linearGradient id="e" x1="10.361" x2="10.364" y1="5.467" y2="5.467" gradientUnits="objectBoundingBox"><stop offset="0" stop-color="#122a3b" class="stopColor3b1212 svgShape"></stop><stop offset="1" stop-color="#517790" class="stopColor905151 svgShape"></stop></linearGradient><linearGradient id="a" x1="36.271" x2="36.282" y1="14.381" y2="14.381" gradientUnits="objectBoundingBox"><stop offset="0" stop-color="#299fef" class="stopColoref4129 svgShape"></stop><stop offset=".158" stop-color="#58b4f2" class="stopColorf26a58 svgShape"></stop><stop offset=".376" stop-color="#92cef6" class="stopColorf69f92 svgShape"></stop><stop offset=".578" stop-color="#c1e3fa" class="stopColorfac8c1 svgShape"></stop><stop offset=".755" stop-color="#e3f2fc" class="stopColorfce6e3 svgShape"></stop><stop offset=".902" stop-color="#f7fbfe" class="stopColorfef8f7 svgShape"></stop><stop offset="1" stop-color="#ffffff" class="stopColorfff svgShape"></stop></linearGradient><linearGradient id="i" x1="10.645" x2="10.648" y1="6.219" y2="6.219" xlink:href="#a"></linearGradient><linearGradient id="j" x1="9.907" x2="9.91" y1="5.154" y2="5.154" xlink:href="#a"></linearGradient><clipPath id="b"><path fill="none" d="M-2483.22,844c-7.406,149.736-77.844,257.589-234.664,260.008-396.407,6.111-276.537,304.461-422.637,346.505-55.551,15.987-95.966,9.648-147.188,75.046-89.539,114.316-40.086,264.941-171.159,257.838-212.079-11.5-295.2,67.209-336.445,156.129h1677.531V844Z" data-name="Path 460" transform="translate(3795.313 -898.572)"></path></clipPath><clipPath id="d"><path fill="none" d="M-2881.011,1192.523c-22.5,0-44.366,5.637-60.02,16.7-30.642,21.652-29.887,54.435-8.982,68.933,31.876,19.315,93.689,5.111,93.689,5.111,23.678,1.925,22.977,36.515,26.078,53.873,0,0,8.745-5.089,10.276-5.411s5.3-.668,6.105,12.695-15.561,24.877-15.561,24.877c.051,8.142,1.819,22.42,2.874,35.469,2.845,1.993,2.223.786,9.854,7.847,69.674,11.217,90.63-1.383,127.382,89.979,3.909-4.888,29.1-37.748,10.758-61.251,15.763,4.039,25.633,12.093,25.339,7.043-4.859-83.06-79.671-76.5-107.646-140.4-12.031-27.482-22.565-60.086-32.7-75.6-17.526-26.818-53.211-39.859-87.434-39.862h-.008" data-name="Path 481" transform="translate(2964.977 -1192.523)"></path></clipPath><clipPath id="f"><path fill="none" d="M-3102.831,1251.946a51.071,51.071,0,0,0-51.072,51.066v23.1a51.067,51.067,0,0,0,51.072,51.066h7.05l27.227,18.292V1377.18a51.065,51.065,0,0,0,51.072-51.066v-23.1a51.069,51.069,0,0,0-51.072-51.066Z" data-name="Path 486" transform="translate(3153.903 -1251.946)"></path></clipPath><clipPath id="g"><path fill="none" d="M-3324.944,1640.139v65.212a22.526,22.526,0,0,0,22.461,22.461h9.378a22.945,22.945,0,0,0,22.879-22.878v-64.8Z" data-name="Path 491" transform="translate(3324.944 -1640.139)"></path></clipPath><clipPath id="h"><path fill="none" d="M-3257.884,1530.818c-10.058,0-20.507,8.48-18.288,18.291l38.978,172.393c2.216,9.81,8.231,18.289,18.289,18.289h260.834c10.059,0,20.507-8.476,18.289-18.289l-38.976-172.393c-2.22-9.812-8.231-18.291-18.291-18.291Z" data-name="Path 497" transform="translate(3276.473 -1530.818)"></path></clipPath></defs><g data-name="Group 5787" transform="translate(-242.469 -546.366)" fill="#000000" class="color000 svgShape"><g clip-path="url(#b)" data-name="Group 144" transform="translate(242.469 600.938)" fill="#000000" class="color000 svgShape"><rect width="1677.531" height="1095.953" fill="url(#c)" data-name="Rectangle 474" transform="translate(.001 -55)"></rect></g><path fill="#299fef" fill-rule="evenodd" d="M-2903.668,1513.654c-23.874,52.4-53.486,112.451-121.823,122.63-55.427,8.26-136.55-96.08-144.523-113.1s22.318-61.476,32.092-56.328,90.123,67.182,97.462,66.708c8.574-.555,37.83-93.6,90.908-124.228,8.28-4.775,56.153,81.781,45.884,104.321" data-name="Path 465" transform="translate(4220.443 -113.047)" class="coloref4129 svgShape"></path><path fill="#2c4b60" fill-rule="evenodd" d="M-2940.366,1238.519c14.207,103.655-55.447,135.642,12.754,231.5,0,0,41.771-45.977,59.659-49.227s20.272-59.5,20.272-62.38-15.921-115.022-15.921-115.022Z" data-name="Path 466" transform="translate(4244.235 -132.081)" class="color602c2c svgShape"></path><path fill="#299fef" fill-rule="evenodd" d="M-2788.934,1386.94c33.711,0,67.593,17.108,82.351,39.112,21.688,32.334-33.489,167.956-22.3,329.839h-277.08c-11.658-97.906-12.15-186.426,13.38-321.691,35.32-55.591,149.349-47.26,203.644-47.26" data-name="Path 467" transform="translate(4238.035 -115.573)" class="coloref4129 svgShape"></path><path fill="#ffffff" fill-rule="evenodd" d="M-2902.4,1389.624c-32.555,18.8-66.78,202.56-43.76,366.426h121c-25.18-173.608,12.434-328.485,27.285-368.958-34.057-2.248-62.823-3.96-104.522,2.532" data-name="Path 470" transform="translate(4244.726 -115.732)" class="colorfff svgShape"></path><path fill="#cce6f7" fill-rule="evenodd" d="M-2925.236,1364.059c10.673,12.82,22.988,23.162,35.645,25.965v13.8l-2.462,3.328c-9.014,15.674-4.115,47.174,10.815,54.852,23.359-8.378,54.957-29.042,61.294-58.067l-4.164-3.86-5.689-3.986-2.783-34.394c1.763-.517,13.036-10.929,16.625-13.018s7.536-10.863,6.083-18.822-13.017-2.575-13.017-2.575h0c10.033-23.588,22.876-43.933-2.977-57.045s-78-12.128-78-12.128l-32.311-3.4c6.205,9.434,5.149,40.813,2.48,64.093-2.391,20.878-5.866,28.058,8.46,45.263" data-name="Path 472" transform="translate(4246.679 -130.275)" class="colorf7cccf svgShape"></path><path fill="#ffffff" fill-rule="evenodd" d="M-3139.716,1468.146c2.56,16.082-12.436,42.025-23.833,46.628-1.274-2.266-8.891-12.084-13.939-19.625-10.84-16.205,14.748-50.061,22.249-42.547Z" data-name="Path 476" transform="translate(4219.464 -108.318)" class="colorfff svgShape"></path><path fill="#cce6f7" fill-rule="evenodd" d="M-3163.175,1450.258c-1.6-7.388-8.313-36.6-13.759-41.511-2.784-2.509-3.444-1.37-4.679.219-1.077,1.39-2,5.174-1.692,7.763.644,5.417,1.061,10.351,1.881,13.271-16.48-8.625-32.263-28.844-44.31-42.69-4.9-5.628-12.685-5.021-7.975,5.019,3.852,8.21,19.08,26.611,19.08,26.611l-20.806-13.409c-5.769-3.126-5.737,3.979-2.986,6.96,4.516,4.9,18.417,17.978,18.417,17.978l-15.159-5.517c-5.8-2.112-2.778,5.032-1.232,6.288,3.552,2.887,16.144,10.918,16.144,10.918l-6.959-2.3c-7.878-2.6-2.111,7.529.168,8.245.483.15,27.705,17.392,32.443,20.234,11.83,7.094,17.44,18.823,25.83,28.675,4.546-3.484,15.974-16.769,17.6-33.117Z" data-name="Path 477" transform="translate(4212.759 -115.879)" class="colorf7cccf svgShape"></path><path fill="#cce6f7" fill-rule="evenodd" d="M-2884.889,1607.276l-13.14,1.7-26.8-10.042c-2.829-1.972-22.105-10.454-18-2.8,2.889,5.374,13.043,15.236,12.661,15.7-4.979,6.06-44.407,9.158-44.892,9.7-6.812,7.568,18.332,7.066,22.6,7.171,1.12.03-17.23,4.207-16.591,5.057a8.527,8.527,0,0,0,7.435,3.842c5.776.005,15.664-1.586,16.625-.573,1,1.05-16.832,4.964-15.825,5.872a7.477,7.477,0,0,0,5.935,2.093c5.986-.159,15.035-2.209,16.341-1.382,1.343.856-11.591,2.9-10.294,3.574,1.012.529.931,2.514,2.034,2.573,29.706,1.6,32.024-13.366,65.991-10.61,18.892,1.526,1.744-27.815-4.088-31.87" data-name="Path 478" transform="translate(4242.211 -92.537)" class="colorf7cccf svgShape"></path><path fill="#ffffff" fill-rule="evenodd" d="M-2916,1333.892c-3.49,5.589,5.777,13.849,10.878,15.161,11.89,3.057,25.091-1.192,26.514-13.843-6.008-1.573-15.7,2.114-25.727.627-7.687-1.144-11.665-1.944-11.665-1.944" data-name="Path 479" transform="translate(4248.843 -121.441)" class="colorfff svgShape"></path><g data-name="Group 147" fill="#000000" class="color000 svgShape"><g clip-path="url(#d)" data-name="Group 146" transform="translate(1278.489 1055.311)" fill="#000000" class="color000 svgShape"><rect width="318.747" height="310.072" fill="url(#e)" data-name="Rectangle 475" transform="translate(-6.697)"></rect></g></g><path fill="#ffffff" fill-rule="evenodd" d="M-3068.553,1251.946h-34.278a51.07,51.07,0,0,0-51.072,51.066v23.1a51.066,51.066,0,0,0,51.072,51.065h7.05l27.228,18.293v-18.293a51.064,51.064,0,0,0,51.07-51.065v-23.1a51.068,51.068,0,0,0-51.07-51.066" data-name="Path 485" transform="translate(4222.389 -130.583)" class="colorfff svgShape"></path><g data-name="Group 149" fill="#000000" class="color000 svgShape"><g clip-path="url(#f)" data-name="Group 148" transform="translate(1068.484 1121.363)" fill="#000000" class="color000 svgShape"><rect width="136.421" height="143.526" fill="#ffffff" data-name="Rectangle 476" transform="translate(-.001)" class="colorfff svgShape"></rect></g></g><path fill="#299fef" fill-rule="evenodd" d="M-3114.961,1329.493l2.491-11.017c-6.9-.391-12.093-7.092-12.093-13.788a13.627,13.627,0,0,1,4.451-10.325,15.66,15.66,0,0,1,11.069-4.162,14.933,14.933,0,0,1,10.752,4.206c10.554,10.133,5.007,32.782-16.67,35.085" data-name="Path 487" transform="translate(4225.662 -126.316)" class="coloref4129 svgShape"></path><path fill="#299fef" fill-rule="evenodd" d="M-3080.921,1329.493l2.492-11.017c-6.9-.391-12.093-7.092-12.093-13.788a13.633,13.633,0,0,1,4.449-10.325A15.657,15.657,0,0,1-3075,1290.2a14.935,14.935,0,0,1,10.753,4.206c10.553,10.133,5.01,32.782-16.67,35.085" data-name="Path 488" transform="translate(4229.46 -126.316)" class="coloref4129 svgShape"></path><path fill="#299fef" d="M-3255.968,1663.333v38.373a20.016,20.016,0,0,0,4.518.515,19.774,19.774,0,0,0,19.843-19.7,19.775,19.775,0,0,0-19.843-19.7,20.142,20.142,0,0,0-4.518.515m-68.975-23.193h68.975v14.2a29.088,29.088,0,0,1,4.518-.352,28.6,28.6,0,0,1,28.675,28.532,28.606,28.606,0,0,1-28.675,28.533,29.006,29.006,0,0,1-5.228-.475,22.967,22.967,0,0,1-22.168,17.235h-23.636a22.527,22.527,0,0,1-22.461-22.463Z" data-name="Path 490" transform="translate(4203.307 -87.277)" class="coloref4129 svgShape"></path><g data-name="Group 151" fill="#000000" class="color000 svgShape"><g clip-path="url(#g)" data-name="Group 150" transform="translate(878.363 1552.862)" fill="#000000" class="color000 svgShape"><rect width="102.079" height="84.607" fill="url(#a)" data-name="Rectangle 477" transform="rotate(-67.017 40.358 60.952)"></rect></g></g><path fill="#f6fbff" fill-rule="evenodd" d="M-3314.385,1649.892h0a5.209,5.209,0,0,1,5.195,5.194v42.383a5.211,5.211,0,0,1-5.195,5.194,5.211,5.211,0,0,1-5.193-5.194v-42.383a5.209,5.209,0,0,1,5.193-5.194" data-name="Path 492" transform="translate(4203.905 -86.189)" class="colorf6fbff svgShape"></path><path fill="#ffffff" fill-rule="evenodd" d="M-3301.139,1580.372c-7.3,38.609,9.364,43.851,9.681,62.124h-18.289c7.62-23.451-5.731-39.173,8.608-62.124" data-name="Path 493" transform="translate(4205.003 -93.945)" class="colorfff svgShape"></path><path fill="#ffffff" fill-rule="evenodd" d="M-3287.558,1607.147c-1.75,17.865,10.872,21.322,8.81,32.361h-10.6c2.561-13.492-4.089-22.655,1.786-32.361" data-name="Path 494" transform="translate(4207.197 -90.958)" class="colorfff svgShape"></path><path fill="#92c5e8" fill-rule="evenodd" d="M-2991.24,1644.061a57.345,57.345,0,0,1,9.1,24.042c1.69,13.778-1.448,20.957-1.448,20.957-36.341,2.918-109.326.176-109.185.153,2.452-.371-3.4-5.606,4.42-9.624,5.626-2.893,24.149-3.826,30.663-8.155,28.905-19.209,48.347-15.444,66.453-27.374" data-name="Path 495" transform="translate(4229.206 -86.839)" class="colore89292 svgShape"></path><path fill="#2782c0" fill-rule="evenodd" d="M-2987.326,1530.822l-252.967,17.309c-10.033.685-20.267,8.429-18.289,18.289l31.11,155.085c1.978,9.858,8.229,18.289,18.288,18.289h260.834c10.06,0,20.508-8.477,18.291-18.289l-38.978-172.393c-2.219-9.812-8.259-18.973-18.29-18.289" data-name="Path 496" transform="translate(4210.684 -99.476)" class="colorc0272d svgShape"></path><g data-name="Group 153" fill="#000000" class="color000 svgShape"><g clip-path="url(#h)" data-name="Group 152" transform="translate(932.241 1431.345)" fill="#000000" class="color000 svgShape"><rect width="340.826" height="208.972" fill="url(#i)" data-name="Rectangle 478" transform="translate(-1.918)"></rect></g></g><g data-name="Group 155" fill="#000000" class="color000 svgShape"><g clip-path="url(#h)" data-name="Group 154" transform="translate(932.241 1431.345)" fill="#000000" class="color000 svgShape"><rect width="369.506" height="260.084" fill="url(#j)" data-name="Rectangle 479" transform="rotate(-9.069 15.517 219.764)"></rect></g></g><path fill="#eef4f8" fill-rule="evenodd" d="M-3128.858,1609.472c-7.883,2.532-11.807,12.253-8.768,21.714s11.9,15.073,19.779,12.536,11.807-12.256,8.766-21.714-11.9-15.07-19.777-12.536" data-name="Path 499" transform="translate(4224.09 -90.766)" class="coloreef4f8 svgShape"></path><path fill="#ffffff" fill-rule="evenodd" d="M-2984.338,1140.865h-31.054a23.785,23.785,0,0,0-23.785,23.785v5.38a23.783,23.783,0,0,0,23.785,23.784h18.373l12.681,8.52v-8.52a23.783,23.783,0,0,0,23.785-23.784v-5.38a23.785,23.785,0,0,0-23.785-23.785" data-name="Path 503" transform="translate(4235.188 -142.975)" class="colorfff svgShape"></path><path fill="#299fef" fill-rule="evenodd" d="M-3018.616,1160.822a3.985,3.985,0,0,1,3.985,3.985,3.986,3.986,0,0,1-3.985,3.986,3.987,3.987,0,0,1-3.986-3.986,3.986,3.986,0,0,1,3.986-3.985" data-name="Path 504" transform="translate(4237.036 -140.749)" class="coloref4129 svgShape"></path><path fill="#299fef" fill-rule="evenodd" d="M-3003.08,1160.822a3.985,3.985,0,0,1,3.985,3.985,3.986,3.986,0,0,1-3.985,3.986,3.987,3.987,0,0,1-3.985-3.986,3.985,3.985,0,0,1,3.985-3.985" data-name="Path 505" transform="translate(4238.77 -140.749)" class="coloref4129 svgShape"></path><path fill="#299fef" fill-rule="evenodd" d="M-2987.54,1160.822a3.985,3.985,0,0,1,3.983,3.985,3.986,3.986,0,0,1-3.983,3.986,3.986,3.986,0,0,1-3.986-3.986,3.985,3.985,0,0,1,3.986-3.985" data-name="Path 506" transform="translate(4240.502 -140.749)" class="coloref4129 svgShape"></path><path fill="#ffffff" fill-rule="evenodd" d="M-3302.735,1423.463h-27.88A41.537,41.537,0,0,0-3372.155,1465v18.79a41.536,41.536,0,0,0,41.541,41.534h5.734l22.146,14.88v-14.88a41.534,41.534,0,0,0,41.537-41.534V1465a41.535,41.535,0,0,0-41.537-41.534" data-name="Path 516" transform="translate(4198.04 -111.449)" class="colorfff svgShape"></path><path fill="#299fef" fill-rule="evenodd" d="M-3314.372,1466.7l.016,4.546h7.132l.693-4.546Zm-11.287,4.546h7.239l-.016-4.546h-8.4Zm-9.127,0h4.969L-3331,1466.7h-5.278Zm7.068,8.09-1.059-4.075h-4.692l1.335,4.075Zm9.323-.011-.013-4.064h-6.21l1.055,4.064Zm9.941,0,.618-4.064h-6.506l.012,4.064Zm9.829-4.064h-5.114l-.621,4.064h3.028c.083,0,.167,0,.25.011h1.784Zm1.411-8.561h-5.219l-.693,4.546h5.162Zm-3.97-8.2-.632,4.136h5.271l.683-4.136Zm-13.214,0,.014,4.136h8.472l.63-4.136Zm-14.566,0,1.072,4.136h9.442l-.013-4.136Zm-8.642,4.136h5.557l-1.073-4.136h-2.07a2.417,2.417,0,0,1-2.419-2.416,2.419,2.419,0,0,1,2.419-2.419h45.025l-4.439,26.934a4.26,4.26,0,0,1-4.2,3.567H-3328.2c-2.523.234-2.9,1.341-4.7,3.132a6.031,6.031,0,0,0-1.735,3.246,4.442,4.442,0,0,1,1.551,1.38h25.505a4.415,4.415,0,0,1,3.633-1.9,4.424,4.424,0,0,1,4.424,4.423,4.426,4.426,0,0,1-4.424,4.424,4.426,4.426,0,0,1-4.2-3.037h-24.368a4.429,4.429,0,0,1-4.2,3.037,4.425,4.425,0,0,1-4.424-4.424,4.408,4.408,0,0,1,.939-2.727,16.4,16.4,0,0,1,4.907-8.549,4.27,4.27,0,0,1-1.311-1.94l-10.07-30.722a1.472,1.472,0,0,0-1.4-1.015h-3.575a2.417,2.417,0,0,1-2.417-2.417,2.418,2.418,0,0,1,2.417-2.416h3.575a6.306,6.306,0,0,1,5.992,4.342Z" data-name="Path 517" transform="translate(4200.059 -109.084)" class="coloref4129 svgShape"></path><path fill="#ffffff" d="M-3403.016,1631.105h9.034v9.9h-9.034Zm9.034-3.4h-9.034c-.023-1.3-.034-2.082-.034-2.371a15.618,15.618,0,0,1,1.456-7.2,21.955,21.955,0,0,1,5.791-6.359,42.517,42.517,0,0,0,5.2-4.623,6.174,6.174,0,0,0,1.313-3.82,6.329,6.329,0,0,0-2.324-4.923,9.063,9.063,0,0,0-6.25-2.059,9.534,9.534,0,0,0-6.346,2.154,11.535,11.535,0,0,0-3.5,6.587l-9.1-1.156a15.172,15.172,0,0,1,5.393-10.753q5.005-4.425,13.14-4.42,8.559,0,13.619,4.469t5.058,10.392a11.4,11.4,0,0,1-1.855,6.212q-1.86,2.93-7.935,7.983a15.054,15.054,0,0,0-3.9,4.2c-.506,1.062-.735,2.952-.685,5.683" data-name="Path 519" transform="translate(4193.059 -93.008)" class="colorfff svgShape"></path><path fill="#ffffff" fill-rule="evenodd" d="M-3077.474,1411.309l3.674,22.94,21.408-8.459-18.032,14.651,18.032,14.312-21.705-8.29-3.377,22.769-3.674-22.939-21.408,8.46,18.032-14.654-18.032-14.309,21.705,8.289Z" data-name="Path 520" transform="translate(4228.116 -112.805)" class="colorfff svgShape"></path><path fill="#ffffff" fill-rule="evenodd" d="M-2944.983,1088.125a50.331,50.331,0,0,0-12.3,4.4c.834,1.014,1.716,1.989,2.644,2.914a40.339,40.339,0,0,0,18,10.433,33.653,33.653,0,0,1-5.013-8.089,57.8,57.8,0,0,1-3.332-9.657m50.1,4.4a50.513,50.513,0,0,0-12.294-4.4,57.794,57.794,0,0,1-3.333,9.657,33.815,33.815,0,0,1-5.014,8.089,40.339,40.339,0,0,0,18-10.433c.929-.926,1.811-1.9,2.644-2.914m-11.78-44.729a50.023,50.023,0,0,0,13.026-4.966,40.554,40.554,0,0,0-3.89-4.505,40.355,40.355,0,0,0-18-10.432,33.805,33.805,0,0,1,5.014,8.089,60.233,60.233,0,0,1,3.846,11.815m-51.863-4.966a50.056,50.056,0,0,0,13.026,4.966,60.185,60.185,0,0,1,3.846-11.815,33.8,33.8,0,0,1,5.014-8.089,40.364,40.364,0,0,0-18,10.432,40.656,40.656,0,0,0-3.887,4.505m30.353,7.137v-23.151c-4.556,1.384-7.881,6.946-9.681,10.9a55.782,55.782,0,0,0-3.559,10.946,84.951,84.951,0,0,0,13.241,1.308m-12.714,37.328a53.418,53.418,0,0,0,3.032,8.758c1.8,3.953,5.124,9.514,9.681,10.9v-20.868a85.726,85.726,0,0,0-12.714,1.213m16.9-1.213v20.868c4.555-1.384,7.882-6.945,9.679-10.9a53.612,53.612,0,0,0,3.035-8.759,85.729,85.729,0,0,0-12.714-1.213m0-59.267v23.151a85.014,85.014,0,0,0,13.237-1.308,55.7,55.7,0,0,0-3.558-10.946c-1.8-3.954-5.125-9.514-9.679-10.9m32.668,19.5a52.391,52.391,0,0,1-14.546,5.591,89.894,89.894,0,0,1,1.189,12.883h18.927a40.2,40.2,0,0,0-5.57-18.474m-32.668,18.474h15.126a86.5,86.5,0,0,0-1.093-12.026,89.479,89.479,0,0,1-14.033,1.386Zm-19.313,0h15.128v-10.64a89.448,89.448,0,0,1-14.034-1.386,86.083,86.083,0,0,0-1.094,12.026m-23.113,0h18.929a89.871,89.871,0,0,1,1.186-12.885,52.269,52.269,0,0,1-14.546-5.59,40.188,40.188,0,0,0-5.569,18.475m18.929,4.184h-18.929a40.2,40.2,0,0,0,6.624,20.156,53.835,53.835,0,0,1,13.89-5.081,88,88,0,0,1-1.584-15.075m5.676,14.241a89.01,89.01,0,0,1,13.636-1.317v-12.924H-2943.3a84.311,84.311,0,0,0,1.492,14.241m31.454,0a84.314,84.314,0,0,0,1.493-14.241h-15.126V1081.9a88.976,88.976,0,0,1,13.633,1.317m24.605-14.241h-18.927a88.123,88.123,0,0,1-1.586,15.075,53.953,53.953,0,0,1,13.89,5.081,40.159,40.159,0,0,0,6.624-20.156m-40.332-46.662a44.436,44.436,0,0,1,31.515,13.054,44.434,44.434,0,0,1,13.053,31.517,44.43,44.43,0,0,1-13.053,31.514,44.434,44.434,0,0,1-31.515,13.052A44.44,44.44,0,0,1-2957.6,1098.4a44.439,44.439,0,0,1-13.052-31.514,44.443,44.443,0,0,1,13.052-31.517,44.442,44.442,0,0,1,31.517-13.054" data-name="Path 522" transform="translate(4242.834 -156.201)" class="colorfff svgShape"></path><path fill="#5399c8" d="M-2782.6,1748.919s-43.849-19.949-37.34-50.838,42.157-27.649,37.34-52.038-28.231-62.374-5.467-90.019,60.629-11.071,65.376-53.939c3.827-34.545,19.788-59.008,50.717-51.839,28.629,6.643,49.976,28.807,50.507,81.528.576,56.138,40.1,40.364,40.595,81.717.494,41.651-32.679,41.651-45.639,69.593-6.119,13.2,9.84,59.583-37.33,65.836Z" data-name="Path 461" transform="translate(4259.571 -108.601)" class="colorc86953 svgShape"></path><path fill="#cceaff" d="M-2685,1470.594c0,.008.111.945.274,2.782.5,5.528,1.506,18.993,1.506,37.761.015,54.9-8.65,155.192-63.3,235.239a2.527,2.527,0,0,0-.236.43h5.724c54.151-81.046,62.586-180.8,62.6-235.67a398.5,398.5,0,0,0-1.81-41.088,2.39,2.39,0,0,0-2.65-2.106,2.4,2.4,0,0,0-2.105,2.651" data-name="Path 462" transform="translate(4267.809 -106.489)" class="colorccf1ff svgShape"></path><path fill="#5399c8" fill-rule="evenodd" d="M-2748.485,1738.338s3.643-38.124,29.52-53.646,52.3-27.6,49.431-52.613,4.187-54.529,45.65-55.083c25.628-.336,16.005-27.359,42.047-32.746,15.826-3.276,26.266,13.247,28.284,29.473,2.308,18.477-8.153,36.644,3.845,51.69,15.57,19.5,21.894,55.863-11.57,66.213s-3.64,42.029-49.211,46.713h-138Z" data-name="Path 463" transform="translate(4267.617 -98.021)" class="colorc86953 svgShape"></path><path fill="#cceaff" d="M-2589.42,1560.731c-.874,24.288-11.648,58.858-30.081,91.838-18.417,33.009-44.48,64.468-75.6,83.01a2.37,2.37,0,0,0-.986,1.13h8.223c29.994-19.412,54.757-49.949,72.545-81.8,18.721-33.565,29.728-68.541,30.689-94a2.4,2.4,0,0,0-2.308-2.481,2.394,2.394,0,0,0-2.478,2.3" data-name="Path 464" transform="translate(4273.463 -96.392)" class="colorccf1ff svgShape"></path><path fill="#2782c0" fill-rule="evenodd" d="M-2736.28,1541.939c-2.051,12.562-4.114,25.818-6.031,39.67-10.113,8.786-23.26,18.65-25.717,18.379s-58.025-2.337-58.025-2.337,47.018-26.51,46.019-52.189-4.69-70.239-4.69-70.239,41.04,39.391,42.374,44.393c.624,2.335,3.426,12.018,6.07,22.322" data-name="Path 468" transform="translate(4258.963 -105.675)" class="colorc0272d svgShape"></path><path fill="#2782c0" fill-rule="evenodd" d="M-2743.068,1610.19q-1.533,15.813-2.532,32.354a210.385,210.385,0,0,1-49.538,10.509c-38.351,3-70.446-6.958-70.365-8.668l97.378-35.02Z" data-name="Path 469" transform="translate(4254.562 -90.71)" class="colorc0272d svgShape"></path><path fill="#c8c9c9" fill-rule="evenodd" d="M-2842.554,1648.159q-.334-7.318-.541-14.538l-22.409,8.058c-.042.9,8.88,4.1,22.95,6.48" data-name="Path 471" transform="translate(4254.562 -88.004)" class="colorc8c8c9 svgShape"></path><path fill="#83c0e9" fill-rule="evenodd" d="M-2850.377,1357.641c-7.671,24.886-15.469,41.356-43.888,44.506v-23.6c9.929-.691,23.1-4.048,43.888-20.9" data-name="Path 473" transform="translate(4251.354 -118.792)" class="colore98385 svgShape"></path><path fill="#299fef" fill-rule="evenodd" d="M-2781.821,1473.569c-12.313-25.337-9.954-48.034,13.656-63.773h0c23.613-15.743,43.749,3.458,56.061,28.8,24.167,49.721,41.866,160.581,16.284,192.142-15.572,19.209-91,32.918-135.354,37.1-15.17,1.431-32.982,1.729-37.219.562-15.448-4.256-24.476-37.124-17.218-50.6,2.825-5.249,19.562-7.068,26.04-8.347,31.57-6.206,85.555-25.978,94.7-30.9,16.711-9.01-8.318-87.214-16.951-104.976" data-name="Path 474" transform="translate(4252.035 -113.61)" class="coloref4129 svgShape"></path><path fill="#ffffff" fill-rule="evenodd" d="M-2869.45,1599.024c12.725,4.095,31.353,45.107,2.28,42.753-11.791-.957-15.4-.379-15.4-.379-14.77-10.569-17.749-26.78-17.216-38.427Z" data-name="Path 475" transform="translate(4250.732 -91.864)" class="colorfff svgShape"></path><path fill="#89cfff" fill-rule="evenodd" d="M-2808.934,1281c7.419,0,13.432,7.5,13.432,16.758s-6.013,16.755-13.432,16.755-13.432-7.5-13.432-16.755,6.014-16.758,13.432-16.758" data-name="Path 480" transform="translate(4259.374 -127.342)" class="colorff89a2 svgShape"></path><path fill="#299fef" fill-rule="evenodd" d="M-2807.312,1273.031c15.017,8.189,20.726,30.793,12.753,50.49s-26.613,29.025-41.63,20.836-20.727-30.794-12.751-50.489,26.611-29.025,41.628-20.837" data-name="Path 482" transform="translate(4256.009 -128.562)" class="coloref4129 svgShape"></path><path fill="#249ef0" fill-rule="evenodd" d="M-2796.43,1284.59c15.014,8.189,20.723,30.795,12.75,50.489s-26.613,29.024-41.63,20.836-20.725-30.794-12.75-50.489c5.247-12.965,15.115-21.434,25.531-23.376h0l-3.547-2.7c1.417-43.911-33.592-87.425-85.9-85.612,29.751-18.87,97.728,10.085,100.184,88.424l-1.145-.01a24.15,24.15,0,0,1,6.51,2.434" data-name="Path 483" transform="translate(4250.494 -137.698)" class="colorf05a24 svgShape"></path><path fill="#299fef" d="M-2874.618,1359.32c21.684-5.425,32.742-17.35,38.589-24.57l-1.66-3.895c-9.666,11.446-20.548,21.547-37.9,24.4-.369-.262-1.525-1.272-1.963-1.535a5.742,5.742,0,0,0-3.429-.842c-2.38.109-5.953,3.007-5.8,6.364a6.16,6.16,0,0,0,6.365,5.8,6.01,6.01,0,0,0,5.8-5.721" data-name="Path 484" transform="translate(4252.188 -121.78)" class="coloref4129 svgShape"></path><path fill="#76c5fb" fill-rule="evenodd" d="M-2808.579,1285.008c7.18-.112,13.133,8.344,13.3,18.885s-5.524,19.179-12.7,19.289-13.134-8.342-13.3-18.885,5.524-19.177,12.706-19.289" data-name="Path 489" transform="translate(4259.494 -126.895)" class="color76c5fb svgShape"></path><path fill="#ffffff" fill-rule="evenodd" d="M-2689.185,1218.348l2.286-2.765a3.338,3.338,0,0,0,.173-4.037,34.625,34.625,0,0,1-4-7.562,3.341,3.341,0,0,0-3.442-2.123l-3.57.331a3.365,3.365,0,0,1-3.674-3.028l-.647-6.836a3.369,3.369,0,0,1,3.039-3.669l3.569-.338a3.344,3.344,0,0,0,2.982-2.734,34.5,34.5,0,0,1,2.512-8.179,3.33,3.33,0,0,0-.936-3.931l-2.761-2.287a3.367,3.367,0,0,1-.45-4.739l4.377-5.292a3.369,3.369,0,0,1,4.742-.449l2.761,2.283a3.343,3.343,0,0,0,4.04.18,34.45,34.45,0,0,1,7.558-4,3.339,3.339,0,0,0,2.126-3.445l-.339-3.568a3.361,3.361,0,0,1,3.034-3.666l6.837-.65a3.369,3.369,0,0,1,3.67,3.036l.338,3.568a3.333,3.333,0,0,0,2.735,2.98,34.9,34.9,0,0,1,8.178,2.512,3.331,3.331,0,0,0,3.932-.929l2.282-2.763a3.367,3.367,0,0,1,4.742-.449l5.293,4.375a3.37,3.37,0,0,1,.448,4.742l-2.283,2.76a3.348,3.348,0,0,0-.178,4.043,34.236,34.236,0,0,1,4,7.553,3.342,3.342,0,0,0,3.444,2.132l3.572-.343a3.366,3.366,0,0,1,3.667,3.037l.652,6.832a3.373,3.373,0,0,1-3.038,3.673l-3.569.335a3.337,3.337,0,0,0-2.981,2.739,34.507,34.507,0,0,1-2.512,8.172,3.339,3.339,0,0,0,.93,3.938l2.762,2.282a3.364,3.364,0,0,1,.45,4.741l-4.375,5.294a3.376,3.376,0,0,1-4.743.448l-2.76-2.285a3.339,3.339,0,0,0-4.043-.176,34.543,34.543,0,0,1-7.552,4,3.34,3.34,0,0,0-2.128,3.444l.339,3.567a3.373,3.373,0,0,1-3.035,3.676l-6.836.645a3.366,3.366,0,0,1-3.671-3.036l-.338-3.57a3.337,3.337,0,0,0-2.733-2.981,34.192,34.192,0,0,1-8.176-2.512,3.328,3.328,0,0,0-3.93.934l-2.29,2.763a3.365,3.365,0,0,1-4.741.448l-5.29-4.377a3.359,3.359,0,0,1-.447-4.736m32.351-36.633a10.013,10.013,0,0,0-11.346,8.477,10.013,10.013,0,0,0,8.477,11.346,10.013,10.013,0,0,0,11.345-8.477,10.015,10.015,0,0,0-8.477-11.346m-10.713,26.086a18.619,18.619,0,0,0,21.43-2.033,18.658,18.658,0,0,0-2.875-30.313,18.624,18.624,0,0,0-21.426,2.032,18.656,18.656,0,0,0,2.871,30.314" data-name="Path 501" transform="translate(4272.793 -142.199)" class="colorfff svgShape"></path><path fill="#ffffff" fill-rule="evenodd" d="M-2774.672,1173.969l3.5-2.981a4.282,4.282,0,0,0,1.12-5.06,44.3,44.3,0,0,1-3.373-10.442,4.281,4.281,0,0,0-3.876-3.443l-4.582-.377a4.317,4.317,0,0,1-3.966-4.639l.7-8.778a4.325,4.325,0,0,1,4.653-3.962l4.582.368a4.287,4.287,0,0,0,4.374-2.789,44.146,44.146,0,0,1,4.992-9.769,4.269,4.269,0,0,0-.308-5.173l-2.977-3.5a4.318,4.318,0,0,1,.486-6.087l6.7-5.711a4.317,4.317,0,0,1,6.086.487l2.981,3.5a4.284,4.284,0,0,0,5.06,1.126,44.191,44.191,0,0,1,10.434-3.375,4.285,4.285,0,0,0,3.453-3.877l.366-4.585a4.31,4.31,0,0,1,4.647-3.955l8.779.7a4.32,4.32,0,0,1,3.958,4.651l-.366,4.583a4.269,4.269,0,0,0,2.791,4.37,44.656,44.656,0,0,1,9.769,4.993,4.272,4.272,0,0,0,5.172-.3l3.5-2.981a4.32,4.32,0,0,1,6.087.487l5.71,6.7a4.32,4.32,0,0,1-.487,6.087l-3.5,2.98a4.284,4.284,0,0,0-1.124,5.064,43.971,43.971,0,0,1,3.375,10.43,4.288,4.288,0,0,0,3.873,3.459l4.585.36a4.319,4.319,0,0,1,3.96,4.65l-.7,8.772a4.328,4.328,0,0,1-4.655,3.964l-4.578-.371a4.284,4.284,0,0,0-4.375,2.8,44.1,44.1,0,0,1-4.991,9.763,4.284,4.284,0,0,0,.3,5.18l2.981,3.5a4.314,4.314,0,0,1-.487,6.086l-6.7,5.714a4.333,4.333,0,0,1-6.091-.491l-2.977-3.5a4.3,4.3,0,0,0-5.068-1.121,44.23,44.23,0,0,1-10.428,3.376,4.279,4.279,0,0,0-3.451,3.873l-.363,4.582a4.327,4.327,0,0,1-4.653,3.966l-8.778-.7a4.314,4.314,0,0,1-3.957-4.651l.366-4.585a4.288,4.288,0,0,0-2.79-4.374,43.664,43.664,0,0,1-9.769-4.989,4.272,4.272,0,0,0-5.168.3l-3.506,2.981a4.313,4.313,0,0,1-6.086-.486l-5.709-6.7a4.309,4.309,0,0,1,.49-6.083m49-39.067a12.842,12.842,0,0,0-16.214,8.181,12.847,12.847,0,0,0,8.183,16.217,12.844,12.844,0,0,0,16.213-8.184,12.841,12.841,0,0,0-8.182-16.213m-19.331,30.56a23.879,23.879,0,0,0,27.516,2.2,23.925,23.925,0,0,0,3.111-38.922,23.884,23.884,0,0,0-27.51-2.2,23.926,23.926,0,0,0-3.118,38.924" data-name="Path 502" transform="translate(4263.447 -148.546)" class="colorfff svgShape"></path><path fill="#ffffff" d="M-2524.616,1011.795l-24.527,24.737h48.024Zm-30.593,25.316,30.655-30.914,32.527,34.244h-66.482Zm89.532,108v-71.265l-15.7-16.53-.049,33.4-29.192,25.219-14.737-10.433-16.414,11.451-30.346-27.019V1059.7l-14.048,14.169v71.241Zm3.909-72.038v75.946h-128.307v-75.946l.572-1.375,17.959-18.112,3.335,1.375v33.226l26.74,23.807,16.122-11.248,14.482,10.25,25.546-22.068.052-36.488,3.361-1.344,19.6,20.631Z" data-name="Path 507" transform="translate(4285.289 -157.999)" class="colorfff svgShape"></path><path fill="#ffffff" d="M-2487.048,1037.4h-82.961v47.746l26.738,23.807,16.122-11.248,14.483,10.25,25.545-22.068Zm-84.915-3.909h88.812q-.035,27.092-.078,54.185l-29.193,25.219-14.736-10.433-16.414,11.451-30.347-27.019v-53.4Z" data-name="Path 508" transform="translate(4287.09 -154.954)" class="colorfff svgShape"></path><path fill="#ffffff" d="M-2542.7,1109.852l-43.466-38.7v67.684h120.494l-.071-67.838-44.776,38.681-14.856-10.461-16.159,11.674Zm-44.124-44.513,45.553,40.557,15.871-11.466,14.642,10.306,48.9-42.247.079,80.256h-128.3v-80.3Z" data-name="Path 509" transform="translate(4285.289 -151.724)" class="colorfff svgShape"></path><path fill="#ffffff" d="M-2525.481,1096l-56.542,39.627h112.117Zm-63.837,39.986,63.862-44.757,62.781,44.765-1.131,3.541h-124.4Z" data-name="Path 510" transform="translate(4285.373 -148.513)" class="colorfff svgShape"></path><path fill="#ffffff" d="M-2536.221,1047.894H-2557.8a.668.668,0,0,0-.477.191l-.009.007a.682.682,0,0,0-.192.479.689.689,0,0,0,.2.481.686.686,0,0,0,.481.2h21.584a.687.687,0,0,0,.482-.2.688.688,0,0,0,.2-.481.677.677,0,0,0-.192-.479l-.006-.007a.678.678,0,0,0-.479-.191m-21.584-3.91h21.584a4.581,4.581,0,0,1,3.234,1.346l.009.008a4.584,4.584,0,0,1,1.345,3.234,4.567,4.567,0,0,1-1.345,3.234l-.009.009a4.569,4.569,0,0,1-3.234,1.345H-2557.8a4.569,4.569,0,0,1-3.234-1.345l-.009-.009a4.568,4.568,0,0,1-1.346-3.234,4.584,4.584,0,0,1,1.346-3.234l.009-.008a4.572,4.572,0,0,1,3.234-1.346" data-name="Path 511" transform="translate(4288.377 -153.783)" class="colorfff svgShape"></path><path fill="#ffffff" d="M-2502,1058.78H-2557.8a.671.671,0,0,0-.477.2.672.672,0,0,0-.2.479.683.683,0,0,0,.2.479.689.689,0,0,0,.481.2H-2502a.689.689,0,0,0,.482-.2.681.681,0,0,0,.2-.479.674.674,0,0,0-.194-.479l0-.007a.682.682,0,0,0-.48-.194m-55.809-3.909H-2502a4.584,4.584,0,0,1,3.234,1.345l.009.008a4.586,4.586,0,0,1,1.344,3.236,4.563,4.563,0,0,1-1.344,3.231l-.009.009a4.571,4.571,0,0,1-3.234,1.347H-2557.8a4.571,4.571,0,0,1-3.234-1.347l-.009-.009a4.565,4.565,0,0,1-1.346-3.231,4.579,4.579,0,0,1,1.346-3.243,4.58,4.58,0,0,1,3.243-1.345" data-name="Path 512" transform="translate(4288.377 -152.569)" class="colorfff svgShape"></path><path fill="#ffffff" d="M-2502,1069.591H-2557.8a.672.672,0,0,0-.477.2.675.675,0,0,0-.2.477.688.688,0,0,0,.2.482.687.687,0,0,0,.481.2H-2502a.687.687,0,0,0,.482-.2.686.686,0,0,0,.2-.482.671.671,0,0,0-.194-.477l0-.008a.692.692,0,0,0-.48-.192m-55.809-3.911H-2502a4.578,4.578,0,0,1,3.234,1.347l.009.009a4.572,4.572,0,0,1,1.344,3.231,4.576,4.576,0,0,1-1.344,3.236l-.009.008a4.569,4.569,0,0,1-3.234,1.344H-2557.8a4.569,4.569,0,0,1-3.234-1.344l-.009-.008a4.578,4.578,0,0,1-1.346-3.236,4.575,4.575,0,0,1,1.346-3.24,4.584,4.584,0,0,1,3.243-1.347" data-name="Path 513" transform="translate(4288.377 -151.363)" class="colorfff svgShape"></path><path fill="#ffffff" d="M-2502,1080.4H-2557.8a.677.677,0,0,0-.477.2.671.671,0,0,0-.2.478.681.681,0,0,0,.2.48.684.684,0,0,0,.481.2H-2502a.683.683,0,0,0,.482-.2.679.679,0,0,0,.2-.48.689.689,0,0,0-.2-.478.686.686,0,0,0-.48-.2m-55.809-3.909H-2502a4.575,4.575,0,0,1,3.244,1.346,4.577,4.577,0,0,1,1.344,3.241,4.569,4.569,0,0,1-1.344,3.234l-.009.008a4.571,4.571,0,0,1-3.234,1.346H-2557.8a4.57,4.57,0,0,1-3.234-1.346l-.009-.008a4.571,4.571,0,0,1-1.346-3.234,4.579,4.579,0,0,1,1.346-3.241,4.572,4.572,0,0,1,3.243-1.346" data-name="Path 514" transform="translate(4288.377 -150.157)" class="colorfff svgShape"></path><path fill="#ffffff" fill-rule="evenodd" d="M-2574.1,1340.534a74.035,74.035,0,0,0-18.065,6.464q1.836,2.234,3.882,4.281a59.249,59.249,0,0,0,26.441,15.327,49.566,49.566,0,0,1-7.365-11.884,84.784,84.784,0,0,1-4.893-14.189m73.6,6.464a74.132,74.132,0,0,0-18.059-6.464,84.88,84.88,0,0,1-4.9,14.189,49.509,49.509,0,0,1-7.366,11.884,59.231,59.231,0,0,0,26.44-15.329,57.773,57.773,0,0,0,3.881-4.279m-17.3-65.714a73.525,73.525,0,0,0,19.137-7.3,59.432,59.432,0,0,0-5.715-6.617,59.256,59.256,0,0,0-26.44-15.327,49.5,49.5,0,0,1,7.366,11.883,88.382,88.382,0,0,1,5.651,17.358m-76.194-7.3a73.512,73.512,0,0,0,19.138,7.3,88.4,88.4,0,0,1,5.65-17.358,49.589,49.589,0,0,1,7.365-11.883,59.266,59.266,0,0,0-26.441,15.327,60.059,60.059,0,0,0-5.712,6.617m44.593,10.485V1250.46c-6.693,2.032-11.579,10.2-14.224,16.011a82.155,82.155,0,0,0-5.229,16.081,124.941,124.941,0,0,0,19.452,1.921m-18.679,54.842a78.568,78.568,0,0,0,4.455,12.865c2.645,5.808,7.531,13.978,14.224,16.009v-30.656a125.589,125.589,0,0,0-18.679,1.782m24.827-1.782v30.656c6.694-2.031,11.58-10.2,14.224-16.009a78.752,78.752,0,0,0,4.454-12.865,125.574,125.574,0,0,0-18.678-1.782m0-87.073v34.012a125.014,125.014,0,0,0,19.449-1.921,82.172,82.172,0,0,0-5.225-16.081c-2.645-5.808-7.531-13.979-14.224-16.011m47.993,28.651a76.753,76.753,0,0,1-21.367,8.211,132.3,132.3,0,0,1,1.747,18.929h27.805a59.024,59.024,0,0,0-8.186-27.14m-47.993,27.14h22.221a126.361,126.361,0,0,0-1.605-17.668,131.6,131.6,0,0,1-20.615,2.036Zm-28.372,0h22.223v-15.632a131.6,131.6,0,0,1-20.618-2.036,126.36,126.36,0,0,0-1.6,17.668m-33.957,0h27.807a132.277,132.277,0,0,1,1.743-18.929,76.9,76.9,0,0,1-21.371-8.213,59.069,59.069,0,0,0-8.18,27.142m27.808,6.147h-27.808a59,59,0,0,0,9.732,29.613,78.85,78.85,0,0,1,20.4-7.465,129.772,129.772,0,0,1-2.327-22.148m8.338,20.92a131.058,131.058,0,0,1,20.034-1.931V1312.4h-22.225a123.968,123.968,0,0,0,2.192,20.92m46.214,0a123.714,123.714,0,0,0,2.189-20.92h-22.221v18.989a131.048,131.048,0,0,1,20.031,1.931m36.147-20.92h-27.808a129.6,129.6,0,0,1-2.331,22.149,79.045,79.045,0,0,1,20.406,7.464,59.008,59.008,0,0,0,9.733-29.613m-59.253-68.552a65.29,65.29,0,0,1,46.3,19.178,65.285,65.285,0,0,1,19.176,46.3,65.293,65.293,0,0,1-19.176,46.3,65.3,65.3,0,0,1-46.3,19.177,65.3,65.3,0,0,1-46.3-19.177,65.294,65.294,0,0,1-19.175-46.3,65.286,65.286,0,0,1,19.175-46.3,65.3,65.3,0,0,1,46.3-19.178" data-name="Path 515" transform="translate(4282.865 -131.487)" class="colorfff svgShape"></path><path fill="#ffffff" d="M-2453.129,1234.821h9.029v9.9h-9.029Zm9.029-3.4h-9.029c-.024-1.3-.037-2.084-.037-2.374a15.645,15.645,0,0,1,1.456-7.2,22.011,22.011,0,0,1,5.791-6.357,42.285,42.285,0,0,0,5.2-4.625,6.164,6.164,0,0,0,1.314-3.817,6.323,6.323,0,0,0-2.325-4.924,9.051,9.051,0,0,0-6.248-2.061,9.528,9.528,0,0,0-6.347,2.156,11.533,11.533,0,0,0-3.505,6.587l-9.1-1.155a15.168,15.168,0,0,1,5.392-10.755q5.007-4.424,13.139-4.419,8.562,0,13.618,4.467c3.373,2.976,5.06,6.43,5.06,10.391a11.405,11.405,0,0,1-1.856,6.215q-1.861,2.926-7.933,7.983a15.015,15.015,0,0,0-3.9,4.2q-.76,1.587-.687,5.683" data-name="Path 518" transform="translate(4299.025 -137.217)" class="colorfff svgShape"></path><path fill="#ffffff" fill-rule="evenodd" d="M-2573.566,1393.162l3.675,22.941,21.407-8.461-18.03,14.655,18.03,14.311-21.7-8.292-3.378,22.77-3.674-22.939-21.408,8.461,18.032-14.655-18.032-14.311,21.706,8.291Z" data-name="Path 521" transform="translate(4284.332 -114.829)" class="colorfff svgShape"></path><path fill="#ffffff" fill-rule="evenodd" d="M-2862.683,1114.911l2.505,15.642,14.6-5.768-12.295,9.99,12.295,9.757-14.8-5.652-2.3,15.527-2.5-15.643-14.6,5.768,12.3-9.99-12.3-9.757,14.8,5.652Z" data-name="Path 523" transform="translate(4252.969 -145.871)" class="colorfff svgShape"></path><path fill="#002a46" d="M-2641.745,1660.037h-31.469a2.911,2.911,0,0,1-2.887-2.524h36.208a1.941,1.941,0,0,1-1.852,2.524" data-name="Path 524" transform="translate(4275.691 -85.339)" class="color000446 svgShape"></path><path fill="#1f6a9d" fill-rule="evenodd" d="M-2578.217,1656.842h-113.943c-7.746,0-14.083,6.771-14.083,15.043s6.337,15.04,14.083,15.04h113.943c7.744,0,14.083-6.768,14.083-15.04s-6.338-15.043-14.083-15.043" data-name="Path 532" transform="translate(4272.328 -85.413)" class="color9d1f39 svgShape"></path><path fill="#edeeee" fill-rule="evenodd" d="M-2678.887,1681.881h-99.671c4.379-5.386,6.09-13.038,0-20.914h99.671c3.535,0,6.435,4.711,6.435,10.457s-2.9,10.457-6.435,10.457" data-name="Path 533" transform="translate(4264.261 -84.953)" class="coloredeeee svgShape"></path><path fill="#dfe0e0" fill-rule="evenodd" d="M-2774.769,1669.317a18.079,18.079,0,0,0-3.788-8.35h99.67c3.091,0,5.7,3.6,6.3,8.35Z" data-name="Path 534" transform="translate(4264.261 -84.953)" class="colore0e0df svgShape"></path><path fill="#3083bb" fill-rule="evenodd" d="M-2781.524,1686.925H-2678.2c5.089,0,10.473-6.858,10.473-15.133s-5.384-14.951-10.473-14.951h-103.324l.048,4.506,102.921.079c3.535,0,6.436,4.711,6.436,10.458s-2.9,10.456-6.436,10.456l-102.921-.078Z" data-name="Path 535" transform="translate(4263.93 -85.413)" class="colorbb3048 svgShape"></path><path fill="#3083bb" fill-rule="evenodd" d="M-2602.4,1656.842h-12.9c7.743,0,14.083,6.767,14.083,15.043a15.456,15.456,0,0,1-4.914,11.39l-4.11,3.65h7.844c7.745,0,14.085-6.768,14.085-15.04s-6.341-15.043-14.085-15.043" data-name="Path 536" transform="translate(4282.473 -85.413)" class="colorbb3048 svgShape"></path><path fill="#3083bb" fill-rule="evenodd" d="M-2709.557,1668.477h12.515v10.369l-5.956-2.4-6.559,2.4Z" data-name="Path 537" transform="translate(4271.959 -84.116)" class="colorbb3048 svgShape"></path><path fill="#3083bb" fill-rule="evenodd" d="M-2655.555,1656.842h-12.9c7.744,0,14.083,6.767,14.083,15.043a15.448,15.448,0,0,1-4.914,11.39l-4.967,3.65h8.7c7.746,0,14.084-6.768,14.084-15.04s-6.339-15.043-14.084-15.043" data-name="Path 538" transform="translate(4276.543 -85.413)" class="colorbb3048 svgShape"></path><path fill="#ffffff" d="M-2494.092,1459.253-2510.9,1476.2h32.905Zm-22.874,17.528,22.934-23.125,25.129,26.454h-51.363Zm65.737,79.325v-51.725l-10.524-11.081-.036,23.529q-10.978,9.492-21.964,18.974l-10.879-7.7-12.118,8.453-22.808-20.307V1495.02l-9.305,9.385v51.7Zm3.912-52.5v56.407h-95.458v-56.407l.572-1.374,13.215-13.33,3.335,1.375V1514.5l19.2,17.095,11.828-8.251,10.622,7.521,18.315-15.825.043-26.614,3.358-1.345,14.42,15.183Z" data-name="Path 539" transform="translate(4290.566 -108.081)" class="colorfff svgShape"></path><path fill="#ffffff" d="M-2466.957,1477.849h-60.021v34.39l19.2,17.095,11.83-8.251,10.622,7.522,18.316-15.827Zm-61.974-3.911h65.875q-.028,20.315-.06,40.629-10.978,9.492-21.964,18.974l-10.88-7.7-12.117,8.452-22.808-20.306v-40.047Z" data-name="Path 540" transform="translate(4291.891 -105.818)" class="colorfff svgShape"></path><path fill="#ffffff" d="M-2507.736,1531.1l-31.128-27.716v48.145h87.643l-.05-48.285-32.408,28-10.963-7.718-11.927,8.618Zm-31.786-33.526,33.213,29.572,11.645-8.413,10.745,7.564,36.533-31.56.062,60.7h-95.451v-60.763Z" data-name="Path 541" transform="translate(4290.566 -103.505)" class="colorfff svgShape"></path><path fill="#ffffff" d="M-2494.751,1521.1l-39.973,28.018h79.267Zm-47.269,28.375,47.293-33.146,46.5,33.155-1.131,3.542h-91.547Z" data-name="Path 542" transform="translate(4290.65 -101.089)" class="colorfff svgShape"></path><path fill="#ffffff" d="M-2518.51,1481.662h15.885a3.891,3.891,0,0,1,2.751,1.141,3.89,3.89,0,0,1,1.142,2.751,3.89,3.89,0,0,1-1.142,2.751,3.877,3.877,0,0,1-2.751,1.142h-15.885a3.871,3.871,0,0,1-2.743-1.142h-.009a3.879,3.879,0,0,1-1.142-2.751,3.88,3.88,0,0,1,1.142-2.751h.009a3.877,3.877,0,0,1,2.743-1.141" data-name="Path 543" transform="translate(4292.838 -104.956)" class="colorfff svgShape"></path><path fill="#ffffff" d="M-2518.51,1489.674h41.072a3.893,3.893,0,0,1,2.751,1.142l0,0a3.893,3.893,0,0,1,1.145,2.748,3.886,3.886,0,0,1-1.14,2.751h-.008a3.882,3.882,0,0,1-2.746,1.141h-41.072a3.881,3.881,0,0,1-2.751-1.141,3.9,3.9,0,0,1-1.142-2.751,3.893,3.893,0,0,1,1.142-2.751,3.894,3.894,0,0,1,2.751-1.142" data-name="Path 544" transform="translate(4292.838 -104.063)" class="colorfff svgShape"></path><path fill="#ffffff" d="M-2518.51,1497.63h41.072a3.879,3.879,0,0,1,2.751,1.142l0,0a3.891,3.891,0,0,1,1.145,2.749,3.889,3.889,0,0,1-1.14,2.751h-.008a3.9,3.9,0,0,1-2.746,1.141h-41.072a3.9,3.9,0,0,1-2.751-1.141,3.9,3.9,0,0,1-1.142-2.751,3.893,3.893,0,0,1,1.142-2.751,3.88,3.88,0,0,1,2.751-1.142" data-name="Path 545" transform="translate(4292.838 -103.175)" class="colorfff svgShape"></path><path fill="#ffffff" d="M-2518.51,1505.583h41.072a3.89,3.89,0,0,1,2.751,1.142l0,.006a3.884,3.884,0,0,1,1.145,2.744,3.879,3.879,0,0,1-1.14,2.751h-.008a3.883,3.883,0,0,1-2.746,1.142h-41.072a3.882,3.882,0,0,1-2.751-1.142,3.887,3.887,0,0,1-1.142-2.748,3.9,3.9,0,0,1,1.142-2.753l0,.006a3.885,3.885,0,0,1,2.748-1.148" data-name="Path 546" transform="translate(4292.838 -102.288)" class="colorfff svgShape"></path><path fill="#ffffff" fill-rule="evenodd" d="M-2716.779,1279.188c-.75,3.741-.329,4.484.165,8.087a30.445,30.445,0,0,0,2.453,9.075,37.721,37.721,0,0,0,2.809,5.344l.728,1.264c3.917,5.827,6.45,9.315,12.351,13.194,5.792,3.806,9.455,5.827,16.322,3.033a6.4,6.4,0,0,0,2.184-1.312c1.122-.914,2.432-4.926,2.74-6.464a1.446,1.446,0,0,0-.589-1.355,5.723,5.723,0,0,0-.569-.5c-.3-.247-.336-.32-.63-.562l-4.887-4.177c-2.29-2.087-2.827-2.066-6.813,1.341-3.929,3.357-3.481,3.251-8.546-1.613l-1.038-1.059c-.382-.425-.675-.727-1.015-1.18-.885-1.179-.905-1.033-1.864-2.474a33.167,33.167,0,0,1-3.95-8.3c-.233-.693-.97-2.33-.8-3.185.381-1.9,7.713-3.436,8.219-5.959.134-.67-1.077-3.37-1.454-4.495l-1.44-4.614a14.162,14.162,0,0,0-.506-1.521c-.428-1.1-.724-1.086-1.689-1.279a13.964,13.964,0,0,0-6.833,1.15l-1.33,1.12c-1.706,1.705-3.51,3.9-4.019,6.435" data-name="Path 547" transform="translate(4271.106 -128.524)" class="colorfff svgShape"></path></g></svg></g></svg>